# xmcd
#
# Track frame offsets:
#	150
#	11672
#	26426
#	42937
#	52167
#	63371
#	79369
#	96828
#	110567
#	122871
#	138113
#	150962
#	165568
#	182048
#	192673
#	202224
#	214523
#
# Disc length: 3079 seconds
#
# Revision: 1
# Processed by: cddbd v1.5.2PL0 Copyright (c) Steve Scherf et al.
# Submitted via: audiograbber 1.83.01
#
DISCID=ef0c0511
DTITLE=Various Artist - Superstars Of Country Volume 3 [Disc 1]
DYEAR=2005
DGENRE=Country
TTITLE0=Willie Nelson - On The Road Again
TTITLE1=Eddie Rabbitt - Drivin' My Life Away
TTITLE2=Johnny Lee - Lookin' For Love
TTITLE3=Charley Pride - Kiss An Angel Good Morning
TTITLE4=Freddie Hart - Easy Loving
TTITLE5=Marty Robbins - My Woman, My Woman, My Wife
TTITLE6=Kenny Rogers - Lady
TTITLE7=George Jones - A Good Year For The Roses
TTITLE8=Freddy Fender - Wasted Days And Wasted Nights
TTITLE9=Jessi Colter - I'm Not Lisa
TTITLE10=Mickey Gilley - Room Full Of Roses
TTITLE11=Jeanne Pruett - Satin Sheets
TTITLE12=Alabama - The Closer You Get
TTITLE13=Barbara Mandrell - Sleeping Single In A Double Bed
TTITLE14=Tom T Hall - I Love
TTITLE15=Donna Fargo - Funny Face
TTITLE16=Cal Smith - Country Bumpkin
EXTD=Time Life Collection
EXTT0=
EXTT1=
EXTT2=
EXTT3=
EXTT4=
EXTT5=
EXTT6=
EXTT7=
EXTT8=
EXTT9=
EXTT10=
EXTT11=
EXTT12=
EXTT13=
EXTT14=
EXTT15=
EXTT16=
PLAYORDER=
